<svg xmlns="http://www.w3.org/2000/svg" xmlns:xlink="http://www.w3.org/1999/xlink" width="500" zoomAndPan="magnify" viewBox="0 0 375 374.999991" height="500" preserveAspectRatio="xMidYMid meet" version="1.0"><defs><g/><clipPath id="aaa729959b"><path d="M 0.210938 133.792969 L 87 133.792969 L 87 226.042969 L 0.210938 226.042969 Z M 0.210938 133.792969 " clip-rule="nonzero"/></clipPath><clipPath id="e6184f2441"><path d="M 39 133.792969 L 126 133.792969 L 126 226.042969 L 39 226.042969 Z M 39 133.792969 " clip-rule="nonzero"/></clipPath><clipPath id="790c5e271a"><path d="M 69 133.792969 L 105 133.792969 L 105 165 L 69 165 Z M 69 133.792969 " clip-rule="nonzero"/></clipPath></defs><g clip-path="url(#aaa729959b)"><path fill="#efefef" d="M 11.503906 141.511719 L 41.953125 141.511719 L 74.957031 218.441406 L 44.503906 218.441406 Z M 46.921875 133.910156 L 0.0117188 133.910156 L 39.535156 226.042969 L 86.445312 226.042969 L 46.921875 133.910156 " fill-opacity="1" fill-rule="nonzero"/></g><g clip-path="url(#e6184f2441)"><path fill="#efefef" d="M 86.675781 226.042969 L 39.765625 226.042969 L 69.875 155.855469 L 104.203125 164.925781 L 102.996094 133.910156 L 126.199219 133.910156 L 86.675781 226.042969 " fill-opacity="1" fill-rule="nonzero"/></g><g clip-path="url(#790c5e271a)"><path fill="#d9d9d9" d="M 69.875 155.855469 L 102.996094 133.910156 L 104.203125 164.925781 Z M 69.875 155.855469 " fill-opacity="1" fill-rule="nonzero"/></g><g fill="#efefef" fill-opacity="1"><g transform="translate(140.332378, 168.660184)"><g><path d="M 12.890625 0 L -1.140625 -33.421875 L 7.453125 -33.421875 L 15.875 -11.46875 L 24.3125 -33.421875 L 32.90625 -33.421875 L 18.875 0 Z M 12.890625 0 "/></g></g></g><g fill="#efefef" fill-opacity="1"><g transform="translate(172.096006, 168.660184)"><g><path d="M 19.40625 -33.421875 L 32.90625 0 L 24.71875 0 L 22.25 -6.6875 L 9.515625 -6.6875 L 7.046875 0 L -1.140625 0 L 12.359375 -33.421875 Z M 19.65625 -13.375 L 15.921875 -23.09375 L 15.84375 -23.09375 L 12.109375 -13.375 Z M 19.65625 -13.375 "/></g></g></g><g fill="#efefef" fill-opacity="1"><g transform="translate(203.859634, 168.660184)"><g><path d="M 10.046875 -33.421875 L 10.046875 -6.6875 L 21.546875 -6.6875 L 21.546875 0 L 2.4375 0 L 2.4375 -33.421875 Z M 10.046875 -33.421875 "/></g></g></g><g fill="#efefef" fill-opacity="1"><g transform="translate(226.750504, 168.660184)"><g><path d="M 10.046875 -33.421875 L 10.046875 -6.6875 L 21.546875 -6.6875 L 21.546875 0 L 2.4375 0 L 2.4375 -33.421875 Z M 10.046875 -33.421875 "/></g></g></g><g fill="#efefef" fill-opacity="1"><g transform="translate(249.641374, 168.660184)"><g><path d="M 19.40625 -33.421875 L 32.90625 0 L 24.71875 0 L 22.25 -6.6875 L 9.515625 -6.6875 L 7.046875 0 L -1.140625 0 L 12.359375 -33.421875 Z M 19.65625 -13.375 L 15.921875 -23.09375 L 15.84375 -23.09375 L 12.109375 -13.375 Z M 19.65625 -13.375 "/></g></g></g><g fill="#efefef" fill-opacity="1"><g transform="translate(281.405002, 168.660184)"><g><path d="M 2.4375 -33.421875 L 12.109375 -33.421875 C 16.753906 -33.421875 20.722656 -31.832031 24.015625 -28.65625 C 27.316406 -25.488281 28.96875 -21.515625 28.96875 -16.734375 C 28.96875 -11.921875 27.328125 -7.925781 24.046875 -4.75 C 20.765625 -1.582031 16.785156 0 12.109375 0 L 2.4375 0 Z M 10.046875 -6.8125 L 11.21875 -6.8125 C 14 -6.8125 16.273438 -7.75 18.046875 -9.625 C 19.816406 -11.5 20.71875 -13.851562 20.75 -16.6875 C 20.75 -19.53125 19.863281 -21.894531 18.09375 -23.78125 C 16.320312 -25.675781 14.03125 -26.625 11.21875 -26.625 L 10.046875 -26.625 Z M 10.046875 -6.8125 "/></g></g></g><g fill="#efefef" fill-opacity="1"><g transform="translate(311.304937, 168.660184)"><g><path d="M 0.9375 -16.734375 C 0.9375 -21.566406 2.582031 -25.65625 5.875 -29 C 9.164062 -32.351562 13.132812 -34.03125 17.78125 -34.03125 C 22.457031 -34.03125 26.425781 -32.363281 29.6875 -29.03125 C 32.957031 -25.695312 34.59375 -21.597656 34.59375 -16.734375 C 34.59375 -11.847656 32.984375 -7.734375 29.765625 -4.390625 C 26.554688 -1.054688 22.5625 0.609375 17.78125 0.609375 C 12.894531 0.609375 8.863281 -1.039062 5.6875 -4.34375 C 2.519531 -7.65625 0.9375 -11.785156 0.9375 -16.734375 Z M 9.15625 -16.734375 C 9.15625 -14.972656 9.425781 -13.367188 9.96875 -11.921875 C 10.507812 -10.484375 11.453125 -9.265625 12.796875 -8.265625 C 14.148438 -7.265625 15.8125 -6.765625 17.78125 -6.765625 C 20.625 -6.765625 22.765625 -7.734375 24.203125 -9.671875 C 25.648438 -11.617188 26.375 -13.972656 26.375 -16.734375 C 26.375 -19.460938 25.632812 -21.804688 24.15625 -23.765625 C 22.6875 -25.722656 20.5625 -26.703125 17.78125 -26.703125 C 15.03125 -26.703125 12.90625 -25.722656 11.40625 -23.765625 C 9.90625 -21.804688 9.15625 -19.460938 9.15625 -16.734375 Z M 9.15625 -16.734375 "/></g></g></g><g fill="#efefef" fill-opacity="1"><g transform="translate(346.836436, 168.660184)"><g><path d="M 14.75 -34.03125 C 16.5625 -34.03125 18.328125 -33.765625 20.046875 -33.234375 C 21.773438 -32.710938 23.0625 -32.195312 23.90625 -31.6875 L 25.125 -30.875 L 22.046875 -24.796875 C 21.796875 -24.953125 21.453125 -25.160156 21.015625 -25.421875 C 20.585938 -25.679688 19.78125 -26.023438 18.59375 -26.453125 C 17.40625 -26.890625 16.300781 -27.109375 15.28125 -27.109375 C 14.007812 -27.109375 13.023438 -26.835938 12.328125 -26.296875 C 11.640625 -25.753906 11.296875 -25.023438 11.296875 -24.109375 C 11.296875 -23.648438 11.457031 -23.222656 11.78125 -22.828125 C 12.113281 -22.441406 12.671875 -22.023438 13.453125 -21.578125 C 14.234375 -21.128906 14.921875 -20.769531 15.515625 -20.5 C 16.109375 -20.226562 17.023438 -19.820312 18.265625 -19.28125 C 20.429688 -18.363281 22.273438 -17.113281 23.796875 -15.53125 C 25.328125 -13.957031 26.09375 -12.171875 26.09375 -10.171875 C 26.09375 -8.253906 25.75 -6.578125 25.0625 -5.140625 C 24.375 -3.710938 23.425781 -2.59375 22.21875 -1.78125 C 21.019531 -0.96875 19.691406 -0.367188 18.234375 0.015625 C 16.773438 0.410156 15.191406 0.609375 13.484375 0.609375 C 12.023438 0.609375 10.59375 0.457031 9.1875 0.15625 C 7.789062 -0.132812 6.617188 -0.503906 5.671875 -0.953125 C 4.722656 -1.398438 3.867188 -1.835938 3.109375 -2.265625 C 2.359375 -2.703125 1.804688 -3.066406 1.453125 -3.359375 L 0.9375 -3.8125 L 4.734375 -10.203125 C 5.054688 -9.941406 5.5 -9.597656 6.0625 -9.171875 C 6.632812 -8.753906 7.644531 -8.191406 9.09375 -7.484375 C 10.539062 -6.785156 11.816406 -6.4375 12.921875 -6.4375 C 16.140625 -6.4375 17.75 -7.53125 17.75 -9.71875 C 17.75 -10.175781 17.632812 -10.601562 17.40625 -11 C 17.175781 -11.394531 16.769531 -11.785156 16.1875 -12.171875 C 15.601562 -12.566406 15.085938 -12.878906 14.640625 -13.109375 C 14.203125 -13.335938 13.472656 -13.6875 12.453125 -14.15625 C 11.441406 -14.632812 10.691406 -14.992188 10.203125 -15.234375 C 8.179688 -16.234375 6.613281 -17.484375 5.5 -18.984375 C 4.394531 -20.484375 3.84375 -22.097656 3.84375 -23.828125 C 3.84375 -26.828125 4.953125 -29.273438 7.171875 -31.171875 C 9.390625 -33.078125 11.914062 -34.03125 14.75 -34.03125 Z M 14.75 -34.03125 "/></g></g></g><g fill="#efefef" fill-opacity="1"><g transform="translate(140.332378, 224.923105)"><g><path d="M 12.890625 0 L -1.140625 -33.421875 L 7.453125 -33.421875 L 15.875 -11.46875 L 24.3125 -33.421875 L 32.90625 -33.421875 L 18.875 0 Z M 12.890625 0 "/></g></g></g><g fill="#efefef" fill-opacity="1"><g transform="translate(172.096006, 224.923105)"><g><path d="M 21.546875 -33.421875 L 21.546875 -26.734375 L 10.046875 -26.734375 L 10.046875 -20.09375 L 21.0625 -20.09375 L 21.0625 -13.40625 L 10.046875 -13.40625 L 10.046875 -6.6875 L 21.546875 -6.6875 L 21.546875 0 L 2.4375 0 L 2.4375 -33.421875 Z M 21.546875 -33.421875 "/></g></g></g><g fill="#efefef" fill-opacity="1"><g transform="translate(195.594609, 224.923105)"><g><path d="M 2.4375 -33.421875 L 14.390625 -33.421875 C 17.597656 -33.421875 20.210938 -32.5625 22.234375 -30.84375 C 24.265625 -29.132812 25.28125 -26.6875 25.28125 -23.5 C 25.28125 -21.039062 24.664062 -18.976562 23.4375 -17.3125 C 22.207031 -15.65625 20.539062 -14.488281 18.4375 -13.8125 L 29.9375 0 L 20.265625 0 L 10.046875 -13.203125 L 10.046875 0 L 2.4375 0 Z M 10.046875 -18.59375 L 10.9375 -18.59375 C 11.644531 -18.59375 12.238281 -18.601562 12.71875 -18.625 C 13.207031 -18.65625 13.757812 -18.75 14.375 -18.90625 C 15 -19.070312 15.5 -19.304688 15.875 -19.609375 C 16.257812 -19.910156 16.585938 -20.34375 16.859375 -20.90625 C 17.128906 -21.46875 17.265625 -22.15625 17.265625 -22.96875 C 17.265625 -23.78125 17.128906 -24.46875 16.859375 -25.03125 C 16.585938 -25.601562 16.257812 -26.035156 15.875 -26.328125 C 15.5 -26.628906 15 -26.859375 14.375 -27.015625 C 13.757812 -27.179688 13.207031 -27.273438 12.71875 -27.296875 C 12.238281 -27.328125 11.644531 -27.34375 10.9375 -27.34375 L 10.046875 -27.34375 Z M 10.046875 -18.59375 "/></g></g></g><g fill="#efefef" fill-opacity="1"><g transform="translate(224.603224, 224.923105)"><g><path d="M 19.40625 -33.421875 L 32.90625 0 L 24.71875 0 L 22.25 -6.6875 L 9.515625 -6.6875 L 7.046875 0 L -1.140625 0 L 12.359375 -33.421875 Z M 19.65625 -13.375 L 15.921875 -23.09375 L 15.84375 -23.09375 L 12.109375 -13.375 Z M 19.65625 -13.375 "/></g></g></g></svg>