<svg xmlns="http://www.w3.org/2000/svg" xmlns:xlink="http://www.w3.org/1999/xlink" width="500" zoomAndPan="magnify" viewBox="0 0 375 374.999991" height="500" preserveAspectRatio="xMidYMid meet" version="1.0"><defs><clipPath id="d028cd0194"><path d="M 0 50.625 L 257 50.625 L 257 324.375 L 0 324.375 Z M 0 50.625 " clip-rule="nonzero"/></clipPath><clipPath id="28c788d661"><path d="M 118 50.625 L 375 50.625 L 375 324.375 L 118 324.375 Z M 118 50.625 " clip-rule="nonzero"/></clipPath><clipPath id="621a9eedbb"><path d="M 207 50.625 L 310 50.625 L 310 143 L 207 143 Z M 207 50.625 " clip-rule="nonzero"/></clipPath></defs><g clip-path="url(#d028cd0194)"><path fill="#f97217" d="M 34.167969 73.203125 L 124.652344 73.203125 L 222.714844 301.785156 L 132.230469 301.785156 Z M 139.414062 50.617188 L 0.0273438 50.617188 L 117.46875 324.371094 L 256.851562 324.371094 L 139.414062 50.617188 " fill-opacity="1" fill-rule="nonzero"/></g><g clip-path="url(#28c788d661)"><path fill="#f97217" d="M 257.53125 324.371094 L 118.144531 324.371094 L 207.613281 115.824219 L 309.621094 142.769531 L 306.027344 50.617188 L 374.972656 50.617188 L 257.53125 324.371094 " fill-opacity="1" fill-rule="nonzero"/></g><g clip-path="url(#621a9eedbb)"><path fill="#d9d9d9" d="M 207.613281 115.824219 L 306.027344 50.617188 L 309.621094 142.769531 Z M 207.613281 115.824219 " fill-opacity="1" fill-rule="nonzero"/></g></svg>